#!OML:ASF H:\Terrain\Patient Classification 1\Terrain2\Thursday\justin.ASF
:FULLY-SPECIFIED
:DEGREES
1279
root -1.06546 20.4293 11.2825 102.907 -84.1054 -102.522
lowerback 7.60392 0.20683 4.01068
upperback 3.78081 0.400589 3.67024
thorax -0.345239 0.140825 1.50394
lowerneck -10.8583 2.86782 -7.23366
upperneck 41.2302 4.07736 0.282616
head 16.5284 -0.104386 1.88243
rclavicle -7.95139e-016 -3.18055e-015
rhumerus -35.9195 -12.1929 -76.1474
rradius 38.0104
rwrist -14.0168
rhand -20.9863 10.358
rfingers 7.12502
rthumb 5.38755 -19.5535
lclavicle -7.95139e-016 -3.18055e-015
lhumerus -39.2629 4.90582 78.6474
lradius 38.7206
lwrist 5.34753
lhand -17.1647 20.7077
lfingers 7.12502
lthumb 9.07639 50.4924
rfemur -15.24 -2.74295 28.6407
rtibia 39.4027
rfoot -20.3339 1.02684
rtoes 19.025
lfemur -14.6271 3.00997 -12.5265
ltibia 56.3751
lfoot 0.739591 -15.8725
ltoes 18.9408
1280
root -1.14027 20.4346 11.2667 97.576 -83.6974 -97.177
lowerback 7.49395 0.157488 4.65709
upperback 3.80723 0.361769 3.77721
thorax -0.250075 0.126716 1.25689
lowerneck -10.9981 2.81448 -7.36558
upperneck 41.1564 4.02744 0.412877
head 16.517 -0.116036 1.96021
rclavicle -4.96962e-016 1.27222e-014
rhumerus -35.8343 -12.051 -76.3631
rradius 37.9674
rwrist -14.2846
rhand -20.5232 10.1341
rfingers 7.12502
rthumb 5.83471 -19.7655
lclavicle -4.96962e-016 1.27222e-014
lhumerus -39.407 5.33833 78.369
lradius 38.5661
lwrist 5.8854
lhand -17.6222 21.1629
lfingers 7.12502
lthumb 8.63498 50.9663
rfemur -14.6225 -2.98006 29.2138
rtibia 38.7932
rfoot -20.4743 0.876742
rtoes 19.1018
lfemur -16.3639 2.81047 -11.7799
ltibia 58.7841
lfoot 2.64306 -15.5554
ltoes 12.6095
1281
root -1.21111 20.4293 11.2448 94.1174 -82.5121 -93.8786
lowerback 7.61185 0.149426 5.83611
upperback 3.88433 0.411372 4.11039
thorax -0.219801 0.154091 0.942021
lowerneck -11.1057 2.77655 -7.18911
upperneck 41.1005 4.01229 0.265429
head 16.5254 -0.106495 1.86471
rclavicle -3.97569e-015 -1.43125e-014
rhumerus -35.6593 -12.0243 -76.5921
rradius 37.8135
rwrist -14.1284
rhand -20.1762 10.0912
rfingers 7.12502
rthumb 6.16973 -19.7989
lclavicle -3.97569e-015 -1.43125e-014
lhumerus -39.5421 5.61333 78.1553
lradius 38.4619
lwrist 6.61986
lhand -18.4138 21.558
lfingers 7.12502
lthumb 7.87096 51.3915
rfemur -13.8133 -3.23235 30.6086
rtibia 38.072
rfoot -20.5291 0.406244
rtoes 16.6501
lfemur -17.9576 2.85236 -10.1657
ltibia 61.1655
lfoot 4.87821 -17.1529
ltoes 9.44698
1282
root -1.28794 20.4156 11.2137 92.1408 -81.0006 -92.3102
lowerback 7.84864 0.0990847 6.98917
upperback 4.08218 0.38943 4.73901
thorax -0.12941 0.136945 0.957494
lowerneck -11.25 2.82969 -7.32551
upperneck 41.0433 4.26674 0.0131172
head 16.5296 -0.0508728 1.82088
rclavicle -4.67144e-015 -2.8625e-014
rhumerus -35.3465 -11.2282 -76.7976
rradius 37.6512
rwrist -14.0995
rhand -20.9103 10.5089
rfingers 7.12502
rthumb 5.46093 -19.4007
lclavicle -4.67144e-015 -2.8625e-014
lhumerus -39.81 6.71537 77.9442
lradius 38.5101
lwrist 6.85603
lhand -18.6319 22.2806
lfingers 7.12502
lthumb 7.66043 52.1218
rfemur -12.775 -3.81282 32.35
rtibia 37.3393
rfoot -20.2984 0.170518
rtoes 15.0061
lfemur -19.2285 2.97689 -8.11156
ltibia 63.454
lfoot 4.90039 -18.6741
ltoes 0.218249
1283
root -1.36654 20.4027 11.1998 89.5698 -80.4019 -90.0612
lowerback 7.95496 0.0197644 7.44032
upperback 4.254 0.284564 5.14938
thorax -0.00536152 0.0789132 1.14407
lowerneck -11.3561 2.84705 -7.88617
upperneck 40.9542 4.49304 -0.0030562
head 16.4884 -0.036346 1.95117
rclavicle -2.28602e-015 -1.43125e-014
rhumerus -35.0993 -10.3457 -76.8352
rradius 37.5836
rwrist -14.3524
rhand -21.4602 10.7487
rfingers 7.12502
rthumb 4.92999 -19.174
lclavicle -2.28602e-015 -1.43125e-014
lhumerus -40.0403 8.10407 77.7884
lradius 38.4607
lwrist 6.7842
lhand -18.6845 22.6745
lfingers 7.12502
lthumb 7.60969 52.5176
rfemur -12.0093 -4.97148 32.9733
rtibia 36.7053
rfoot -19.9912 0.445491
rtoes 14.0579
lfemur -20.4846 2.65257 -7.30118
ltibia 65.4955
lfoot 5.09355 -19.5257
ltoes -1.77917
1284
root -1.43479 20.3808 11.2011 86.7719 -80.4371 -87.5099
lowerback 8.1503 0.0634996 7.49978
upperback 4.31063 0.357422 5.25253
thorax -0.0507375 0.111357 1.21342
lowerneck -11.4402 2.75459 -8.24595
upperneck 41.0486 4.41303 0.165971
head 16.5509 -0.103487 2.08097
rclavicle -1.39149e-015 0
rhumerus -35.036 -10.0078 -76.768
rradius 37.5765
rwrist -14.4683
rhand -21.4696 10.449
rfingers 7.12502
rthumb 4.92094 -19.4739
lclavicle -1.39149e-015 0
lhumerus -40.0435 8.59373 77.7997
lradius 38.0269
lwrist 6.99444
lhand -18.9171 22.3646
lfingers 7.12502
lthumb 7.38513 52.2157
rfemur -11.2388 -5.7385 32.8277
rtibia 36.1805
rfoot -19.9933 0.639056
rtoes 13.7317
lfemur -21.7874 2.12699 -7.39982
ltibia 67.3503
lfoot 5.57784 -19.7054
ltoes 1.81687
1285
root -1.5019 20.3753 11.1951 85.7966 -80.3904 -86.7995
lowerback 8.46466 0.241703 7.63239
upperback 4.33784 0.633913 5.25518
thorax -0.183843 0.246578 1.12015
lowerneck -11.4607 2.66475 -8.09524
upperneck 41.1503 4.27858 0.0847121
head 16.6276 -0.149425 1.9999
rclavicle 4.57205e-015 1.51076e-014
rhumerus -34.9842 -9.81322 -76.8368
rradius 37.5071
rwrist -14.413
rhand -21.474 10.1024
rfingers 7.12502
rthumb 4.91666 -19.8205
lclavicle 4.57205e-015 1.51076e-014
lhumerus -39.9961 8.40568 77.7803
lradius 37.5141
lwrist 7.41531
lhand -18.9728 22.258
lfingers 7.12502
lthumb 7.33143 52.111
rfemur -10.4 -5.68443 32.8273
rtibia 35.703
rfoot -20.1002 0.778499
rtoes 15.0001
lfemur -22.919 1.859 -7.33335
ltibia 68.9922
lfoot 5.03703 -19.5946
ltoes 3.36211
1286
root -1.57682 20.371 11.1737 86.0595 -79.9856 -87.4305
lowerback 8.70442 0.428027 8.0688
upperback 4.50136 0.91278 5.28528
thorax -0.122904 0.389567 0.887563
lowerneck -11.2864 2.59281 -7.70718
upperneck 40.8603 4.19793 -0.258068
head 16.4552 -0.141618 1.76328
rclavicle -8.05078e-015 -2.14687e-014
rhumerus -34.7387 -9.61149 -77.1093
rradius 37.1868
rwrist -14.2096
rhand -21.3797 10.2998
rfingers 7.12502
rthumb 5.00771 -19.621
lclavicle -8.05078e-015 -2.14687e-014
lhumerus -39.8086 8.33191 77.52
lradius 37.0002
lwrist 7.4231
lhand -18.6735 22.3252
lfingers 7.12502
lthumb 7.62029 52.1679
rfemur -9.43254 -5.5954 33.2916
rtibia 35.2165
rfoot -20.1336 0.978681
rtoes 17.102
lfemur -23.8645 1.90472 -6.74382
ltibia 70.5479
lfoot 3.47981 -20.0239
ltoes 1.84099
1287
root -1.65017 20.3555 11.1443 86.5097 -78.7061 -88.3473
lowerback 9.05219 0.671165 9.43556
upperback 4.68349 1.33361 5.45908
thorax -0.0583974 0.60871 0.281976
lowerneck -11.1241 2.39979 -7.25695
upperneck 40.5522 3.88163 -0.487191
head 16.2824 -0.203394 1.53168
rclavicle -6.85807e-015 1.19271e-014
rhumerus -34.4774 -9.82413 -77.376
rradius 36.759
rwrist -13.8916
rhand -21.2876 10.7779
rfingers 7.12502
rthumb 5.09667 -19.1409
lclavicle -6.85807e-015 1.19271e-014
lhumerus -39.4323 8.10944 77.2376
lradius 36.3822
lwrist 7.25804
lhand -19.0867 22.3078
lfingers 7.12502
lthumb 7.22148 52.1646
rfemur -8.46113 -5.39178 34.8012
rtibia 34.7938
rfoot -20.1513 0.767539
rtoes 18.9414
lfemur -24.7642 2.1926 -5.09579
ltibia 71.974
lfoot 1.62156 -20.4493
ltoes -1.03625
1288
root -1.72303 20.3378 11.1239 87.0356 -77.4031 -89.2616
lowerback 9.48703 1.01516 10.8148
upperback 4.70607 1.93003 5.6956
thorax -0.176397 0.905408 -0.280005
lowerneck -11.0382 2.11003 -6.97688
upperneck 40.5708 3.38136 -0.514336
head 16.2989 -0.364401 1.39188
rclavicle 5.56597e-015 1.03368e-014
rhumerus -34.386 -10.1767 -77.4665
rradius 36.4156
rwrist -13.8273
rhand -21.2256 11.0006
rfingers 7.12502
rthumb 5.15648 -18.9167
lclavicle 5.56597e-015 1.03368e-014
lhumerus -39.22 7.84699 77.1782
lradius 35.783
lwrist 7.07894
lhand -20.1433 22.3857
lfingers 7.12502
lthumb 6.20143 52.2749
rfemur -7.67988 -5.17863 36.3293
rtibia 34.4587
rfoot -20.1677 0.153211
rtoes 19.0771
lfemur -25.6368 2.53018 -3.4743
ltibia 73.0926
lfoot 0.381197 -20.1619
ltoes -0.745711
1289
root -1.81457 20.3423 11.115 86.9327 -77.8483 -89.5107
lowerback 9.72743 1.26418 10.1578
upperback 4.75569 2.24017 5.74636
thorax -0.26818 1.04824 0.0978496
lowerneck -10.9416 1.98788 -7.05937
upperneck 40.6714 3.2421 -0.605476
head 16.3397 -0.451139 1.34317
rclavicle -9.64106e-015 -2.46493e-014
rhumerus -34.249 -9.46235 -77.4455
rradius 36.1696
rwrist -14.1951
rhand -21.0521 11.0975
rfingers 7.12502
rthumb 5.32402 -18.8156
lclavicle -9.64106e-015 -2.46493e-014
lhumerus -39.3279 8.59121 77.0861
lradius 35.2447
lwrist 6.35613
lhand -20.2396 22.365
lfingers 7.12502
lthumb 6.10854 52.2569
rfemur -6.8457 -5.43585 35.7728
rtibia 34.224
rfoot -20.319 -0.0492131
rtoes 18.4077
lfemur -26.1208 2.57901 -4.04105
ltibia 73.7227
lfoot -0.572057 -19.4506
ltoes 1.30218
